<?xml version="1.0" encoding="UTF-8"?>
<svg width="752pt" height="752pt" version="1.1" viewBox="0 0 752 752" xmlns="http://www.w3.org/2000/svg">
 <path d="m514.29 279.86c-6.1562-5.6836-8.5234-14.68-5.2109-22.258l2.8398-7.1055c4.7344-10.891-1.4219-23.207-12.785-26.52l-7.5781-1.8945c-8.0508-2.3672-13.734-9.4727-14.207-17.996l0.003906-8.0508c-0.47266-11.84-11.367-20.363-22.73-18.469l-7.5781 1.4219c-8.5234 1.4219-16.574-2.3672-20.363-9.9453l-3.7891-6.6289c-5.6836-10.418-18.941-13.262-28.414-6.6289l-6.1562 4.2617c-6.6289 4.7344-16.102 4.7344-22.73 0l-6.1562-4.7344c-9.4727-7.1055-23.207-3.7891-28.887 6.6289l-3.7891 6.6289c-4.2617 7.5781-12.312 11.367-20.836 9.9453l-7.5781-1.4219c-11.84-1.8945-22.258 6.6289-23.207 18.469l-0.47266 7.5781c-0.47266 8.5234-6.1562 15.629-14.207 17.996l-7.582 2.3672c-11.367 3.3164-17.523 15.629-12.785 26.52l2.8398 7.1055c3.3164 7.5781 0.94531 16.574-5.2109 22.258l-5.6836 5.2109c-8.9961 7.5781-8.9961 21.785 0 29.363l5.6836 5.2109c6.1562 5.6836 8.5234 14.68 5.2109 22.258l-2.8398 7.1055c-4.7344 10.891 1.4219 23.207 12.785 26.52l7.5781 1.8945c8.0508 2.3672 13.734 9.4727 14.207 17.996l0.47266 7.5781c0.47266 11.84 11.367 20.363 22.73 18.469l7.5781-1.4219c8.5234-1.4219 16.574 2.3672 20.363 9.9453l3.7891 6.6289c5.6836 10.418 18.941 13.262 28.414 6.6289l6.1562-4.2617c6.6289-4.7344 16.102-4.7344 22.73 0l6.1562 4.7344c9.4727 7.1055 23.207 3.7891 28.887-6.6289l3.7891-6.6289c4.2617-7.5781 12.312-11.367 20.836-9.9453l7.5781 1.4219c11.84 1.8945 22.258-6.6289 23.207-18.469l0.47266-7.5781c0.47266-8.5234 6.1562-15.629 14.207-17.996l7.5781-1.8945c11.367-3.3164 17.523-15.629 12.785-26.52l-2.8398-7.1055c-3.3164-7.5781-0.94531-16.574 5.2109-22.258l5.6836-5.2109c8.9961-7.5781 8.9961-21.785 0-29.363zm-138.29 108.93c-49.254 0-89.508-39.781-89.508-89.508 0-49.254 39.781-89.508 89.508-89.508 49.254 0 89.508 39.781 89.508 89.508 0 49.254-40.254 89.508-89.508 89.508zm34.574-134.97 21.312 21.312-48.781 48.777-21.312 20.84-41.676-41.676 21.312-21.312 20.363 20.363zm-183.28 308.3 46.41-116.03c6.1562 2.8398 13.262 4.7344 20.363 4.7344 2.8398 0 5.6836-0.47266 8.5234-0.94531h0.94531l0.47266 0.94531c8.0547 15.156 24.633 24.629 42.629 24.629 4.7344 0 9.9453-0.94531 14.207-2.3672l-48.781 122.66c-1.4219 3.7891-6.6289 4.2617-8.5234 0.47266l-23.207-40.727c-0.94531-1.4219-2.3672-1.8945-3.7891-1.4219l-43.57 13.734c-3.7852 1.4219-7.1016-2.3672-5.6797-5.6836zm212.64 35.047-49.254-123.13c4.7344 1.4219 9.4727 2.3672 14.207 2.3672 17.996 0 34.098-9.4727 42.621-25.102l0.47266-0.94531h0.94531c2.8398 0.47266 5.6836 0.94531 8.5234 0.94531 7.5781 0 14.207-1.8945 20.836-4.7344l46.41 116.97c1.4219 3.7891-1.8945 7.5781-5.6836 6.1562l-43.57-13.734c-1.4219-0.47266-2.8398 0-3.7891 1.4219l-23.207 40.727c-1.8789 2.8477-7.0898 2.375-8.5117-0.94141z"/>
</svg>
